# xmcd CD database file
#
# Track frame offsets:
#	150
#	21402
#	43782
#	65047
#
# Disc length: 1162 seconds
#
# Revision: 0
# Processed by: cddbd v1.5.1PL2 Copyright (c) Steve Scherf et al.
# Submitted via: CDex 1.51
#
DISCID=36048804
DTITLE=V6 - 翼になれ
DYEAR=1900
DGENRE=JPop
TTITLE0=翼になれ
TTITLE1=FLY TO THE WORLD！ (Original Karaoke)
TTITLE2=翼になれ
TTITLE3=FLY TO THE WORLD！ (Original Karaoke)
EXTD=
EXTT0=
EXTT1=
EXTT2=
EXTT3=
PLAYORDER=
